<mxfile host="app.diagrams.net" modified="2022-05-26T08:52:27.721Z" agent="5.0 (Windows NT 10.0; Win64; x64) AppleWebKit/537.36 (KHTML, like Gecko) Chrome/102.0.5005.61 Safari/537.36" etag="-I3taV6IJz-ed801K9cp" version="18.1.2" type="github">
  <diagram id="uLI98REs6lUxgo_DiTGd" name="Page-1">
    <mxGraphModel dx="805" dy="845" grid="1" gridSize="10" guides="1" tooltips="1" connect="1" arrows="1" fold="1" page="1" pageScale="1" pageWidth="827" pageHeight="1169" math="0" shadow="0">
      <root>
        <mxCell id="0" />
        <mxCell id="1" parent="0" />
        <mxCell id="m_1idenRZPcWFlcXNVzY-4" style="edgeStyle=orthogonalEdgeStyle;rounded=0;orthogonalLoop=1;jettySize=auto;html=1;entryX=0.5;entryY=0;entryDx=0;entryDy=0;" edge="1" parent="1" source="m_1idenRZPcWFlcXNVzY-1" target="m_1idenRZPcWFlcXNVzY-2">
          <mxGeometry relative="1" as="geometry" />
        </mxCell>
        <mxCell id="m_1idenRZPcWFlcXNVzY-1" value="start" style="strokeWidth=2;html=1;shape=mxgraph.flowchart.terminator;whiteSpace=wrap;" vertex="1" parent="1">
          <mxGeometry x="100" y="20" width="100" height="60" as="geometry" />
        </mxCell>
        <mxCell id="m_1idenRZPcWFlcXNVzY-6" style="edgeStyle=orthogonalEdgeStyle;rounded=0;orthogonalLoop=1;jettySize=auto;html=1;entryX=0.5;entryY=0;entryDx=0;entryDy=0;entryPerimeter=0;" edge="1" parent="1" source="m_1idenRZPcWFlcXNVzY-2" target="m_1idenRZPcWFlcXNVzY-5">
          <mxGeometry relative="1" as="geometry" />
        </mxCell>
        <mxCell id="m_1idenRZPcWFlcXNVzY-2" value="" style="verticalLabelPosition=bottom;verticalAlign=top;html=1;shape=hexagon;perimeter=hexagonPerimeter2;arcSize=6;size=0.27;" vertex="1" parent="1">
          <mxGeometry x="60" y="120" width="180" height="90" as="geometry" />
        </mxCell>
        <mxCell id="m_1idenRZPcWFlcXNVzY-3" value="using namespace std;&#xa;	vector&lt;int&gt; data;&#xa;	int a = 0;&#xa;	int result;" style="text;html=1;strokeColor=none;fillColor=none;align=center;verticalAlign=middle;whiteSpace=wrap;rounded=0;" vertex="1" parent="1">
          <mxGeometry x="91" y="154" width="120" height="30" as="geometry" />
        </mxCell>
        <mxCell id="m_1idenRZPcWFlcXNVzY-8" style="edgeStyle=orthogonalEdgeStyle;rounded=0;orthogonalLoop=1;jettySize=auto;html=1;entryX=0.5;entryY=0;entryDx=0;entryDy=0;entryPerimeter=0;" edge="1" parent="1" source="m_1idenRZPcWFlcXNVzY-5" target="m_1idenRZPcWFlcXNVzY-7">
          <mxGeometry relative="1" as="geometry" />
        </mxCell>
        <mxCell id="m_1idenRZPcWFlcXNVzY-5" value="printf(&quot;데이타 입력 :&quot;);" style="strokeWidth=2;html=1;shape=mxgraph.flowchart.document2;whiteSpace=wrap;size=0.25;" vertex="1" parent="1">
          <mxGeometry x="70.5" y="260" width="159" height="60" as="geometry" />
        </mxCell>
        <mxCell id="m_1idenRZPcWFlcXNVzY-13" style="edgeStyle=orthogonalEdgeStyle;rounded=0;orthogonalLoop=1;jettySize=auto;html=1;entryX=0.5;entryY=0;entryDx=0;entryDy=0;" edge="1" parent="1" source="m_1idenRZPcWFlcXNVzY-7" target="m_1idenRZPcWFlcXNVzY-11">
          <mxGeometry relative="1" as="geometry" />
        </mxCell>
        <mxCell id="m_1idenRZPcWFlcXNVzY-7" value="int i = 0; i &lt; 7; i++" style="strokeWidth=2;html=1;shape=mxgraph.flowchart.loop_limit;whiteSpace=wrap;" vertex="1" parent="1">
          <mxGeometry x="85" y="360" width="130" height="60" as="geometry" />
        </mxCell>
        <mxCell id="m_1idenRZPcWFlcXNVzY-18" style="edgeStyle=orthogonalEdgeStyle;rounded=0;orthogonalLoop=1;jettySize=auto;html=1;entryX=0.5;entryY=0;entryDx=0;entryDy=0;entryPerimeter=0;" edge="1" parent="1" source="m_1idenRZPcWFlcXNVzY-9" target="m_1idenRZPcWFlcXNVzY-16">
          <mxGeometry relative="1" as="geometry" />
        </mxCell>
        <mxCell id="m_1idenRZPcWFlcXNVzY-9" value="" style="strokeWidth=2;html=1;shape=mxgraph.flowchart.loop_limit;whiteSpace=wrap;rotation=-180;" vertex="1" parent="1">
          <mxGeometry x="90" y="630" width="120" height="60" as="geometry" />
        </mxCell>
        <mxCell id="m_1idenRZPcWFlcXNVzY-10" value="&lt;span style=&quot;color: rgb(0, 0, 0); font-family: Helvetica; font-size: 12px; font-style: normal; font-variant-ligatures: normal; font-variant-caps: normal; font-weight: 400; letter-spacing: normal; orphans: 2; text-align: center; text-indent: 0px; text-transform: none; widows: 2; word-spacing: 0px; -webkit-text-stroke-width: 0px; background-color: rgb(248, 249, 250); text-decoration-thickness: initial; text-decoration-style: initial; text-decoration-color: initial; float: none; display: inline !important;&quot;&gt;i &amp;lt; 7;&lt;/span&gt;" style="text;html=1;strokeColor=none;fillColor=none;align=center;verticalAlign=middle;whiteSpace=wrap;rounded=0;" vertex="1" parent="1">
          <mxGeometry x="120" y="645" width="60" height="30" as="geometry" />
        </mxCell>
        <mxCell id="m_1idenRZPcWFlcXNVzY-14" style="edgeStyle=orthogonalEdgeStyle;rounded=0;orthogonalLoop=1;jettySize=auto;html=1;entryX=0.5;entryY=0;entryDx=0;entryDy=0;" edge="1" parent="1" source="m_1idenRZPcWFlcXNVzY-11" target="m_1idenRZPcWFlcXNVzY-12">
          <mxGeometry relative="1" as="geometry" />
        </mxCell>
        <mxCell id="m_1idenRZPcWFlcXNVzY-11" value="scanf(&quot;%d&quot;, &amp;a);" style="shape=parallelogram;html=1;strokeWidth=2;perimeter=parallelogramPerimeter;whiteSpace=wrap;rounded=1;arcSize=12;size=0.23;" vertex="1" parent="1">
          <mxGeometry x="100" y="465" width="100" height="60" as="geometry" />
        </mxCell>
        <mxCell id="m_1idenRZPcWFlcXNVzY-15" style="edgeStyle=orthogonalEdgeStyle;rounded=0;orthogonalLoop=1;jettySize=auto;html=1;entryX=0.5;entryY=1;entryDx=0;entryDy=0;entryPerimeter=0;" edge="1" parent="1" source="m_1idenRZPcWFlcXNVzY-12" target="m_1idenRZPcWFlcXNVzY-9">
          <mxGeometry relative="1" as="geometry" />
        </mxCell>
        <mxCell id="m_1idenRZPcWFlcXNVzY-12" value="data.push_back(a);" style="rounded=1;whiteSpace=wrap;html=1;absoluteArcSize=1;arcSize=14;strokeWidth=2;" vertex="1" parent="1">
          <mxGeometry x="95" y="560" width="110" height="40" as="geometry" />
        </mxCell>
        <mxCell id="m_1idenRZPcWFlcXNVzY-20" style="edgeStyle=orthogonalEdgeStyle;rounded=0;orthogonalLoop=1;jettySize=auto;html=1;entryX=0.5;entryY=0;entryDx=0;entryDy=0;" edge="1" parent="1" source="m_1idenRZPcWFlcXNVzY-16" target="m_1idenRZPcWFlcXNVzY-19">
          <mxGeometry relative="1" as="geometry" />
        </mxCell>
        <mxCell id="m_1idenRZPcWFlcXNVzY-16" value="printf(&quot;검색 데이타 :&quot;);" style="strokeWidth=2;html=1;shape=mxgraph.flowchart.document2;whiteSpace=wrap;size=0.25;" vertex="1" parent="1">
          <mxGeometry x="90" y="720" width="120" height="60" as="geometry" />
        </mxCell>
        <mxCell id="m_1idenRZPcWFlcXNVzY-23" style="edgeStyle=orthogonalEdgeStyle;rounded=0;orthogonalLoop=1;jettySize=auto;html=1;entryX=0.5;entryY=0;entryDx=0;entryDy=0;" edge="1" parent="1" source="m_1idenRZPcWFlcXNVzY-19" target="m_1idenRZPcWFlcXNVzY-22">
          <mxGeometry relative="1" as="geometry" />
        </mxCell>
        <mxCell id="m_1idenRZPcWFlcXNVzY-19" value="scanf(&quot;%d&quot;, &amp;a);" style="shape=parallelogram;html=1;strokeWidth=2;perimeter=parallelogramPerimeter;whiteSpace=wrap;rounded=1;arcSize=12;size=0.23;" vertex="1" parent="1">
          <mxGeometry x="100" y="810" width="100" height="60" as="geometry" />
        </mxCell>
        <mxCell id="m_1idenRZPcWFlcXNVzY-25" style="edgeStyle=orthogonalEdgeStyle;rounded=0;orthogonalLoop=1;jettySize=auto;html=1;entryX=0.5;entryY=0;entryDx=0;entryDy=0;entryPerimeter=0;" edge="1" parent="1" source="m_1idenRZPcWFlcXNVzY-22" target="m_1idenRZPcWFlcXNVzY-24">
          <mxGeometry relative="1" as="geometry" />
        </mxCell>
        <mxCell id="m_1idenRZPcWFlcXNVzY-22" value="result = BinerySearch(data, a);" style="rounded=1;whiteSpace=wrap;html=1;absoluteArcSize=1;arcSize=14;strokeWidth=2;" vertex="1" parent="1">
          <mxGeometry x="67.5" y="910" width="166" height="40" as="geometry" />
        </mxCell>
        <mxCell id="m_1idenRZPcWFlcXNVzY-27" style="edgeStyle=orthogonalEdgeStyle;rounded=0;orthogonalLoop=1;jettySize=auto;html=1;entryX=0.5;entryY=0;entryDx=0;entryDy=0;entryPerimeter=0;" edge="1" parent="1" source="m_1idenRZPcWFlcXNVzY-24" target="m_1idenRZPcWFlcXNVzY-26">
          <mxGeometry relative="1" as="geometry" />
        </mxCell>
        <mxCell id="m_1idenRZPcWFlcXNVzY-24" value="printf(&quot;\n%d는 x[%d]에 있습니다.&quot;,a,result);" style="strokeWidth=2;html=1;shape=mxgraph.flowchart.document2;whiteSpace=wrap;size=0.25;" vertex="1" parent="1">
          <mxGeometry x="100" y="980" width="100" height="60" as="geometry" />
        </mxCell>
        <mxCell id="m_1idenRZPcWFlcXNVzY-26" value="end" style="strokeWidth=2;html=1;shape=mxgraph.flowchart.terminator;whiteSpace=wrap;" vertex="1" parent="1">
          <mxGeometry x="100" y="1070" width="100" height="60" as="geometry" />
        </mxCell>
        <mxCell id="m_1idenRZPcWFlcXNVzY-32" style="edgeStyle=orthogonalEdgeStyle;rounded=0;orthogonalLoop=1;jettySize=auto;html=1;entryX=0.5;entryY=0;entryDx=0;entryDy=0;" edge="1" parent="1" source="m_1idenRZPcWFlcXNVzY-28" target="m_1idenRZPcWFlcXNVzY-30">
          <mxGeometry relative="1" as="geometry" />
        </mxCell>
        <mxCell id="m_1idenRZPcWFlcXNVzY-28" value="int BinerySearch(std::vector&lt;int&gt;&amp; data, int num)" style="rounded=1;whiteSpace=wrap;html=1;absoluteArcSize=1;arcSize=14;strokeWidth=2;" vertex="1" parent="1">
          <mxGeometry x="350" y="84" width="260" height="56" as="geometry" />
        </mxCell>
        <mxCell id="m_1idenRZPcWFlcXNVzY-35" style="edgeStyle=orthogonalEdgeStyle;rounded=0;orthogonalLoop=1;jettySize=auto;html=1;entryX=0.5;entryY=0;entryDx=0;entryDy=0;entryPerimeter=0;" edge="1" parent="1" source="m_1idenRZPcWFlcXNVzY-29" target="m_1idenRZPcWFlcXNVzY-34">
          <mxGeometry relative="1" as="geometry" />
        </mxCell>
        <mxCell id="m_1idenRZPcWFlcXNVzY-29" value="printf(&quot; | 0  1  2  3  4  5  6\n&quot;);&#xa;    printf(&quot;-|---------------------\n&quot;);" style="strokeWidth=2;html=1;shape=mxgraph.flowchart.document2;whiteSpace=wrap;size=0.25;" vertex="1" parent="1">
          <mxGeometry x="392.25" y="290" width="175.5" height="90" as="geometry" />
        </mxCell>
        <mxCell id="m_1idenRZPcWFlcXNVzY-33" style="edgeStyle=orthogonalEdgeStyle;rounded=0;orthogonalLoop=1;jettySize=auto;html=1;entryX=0.5;entryY=0;entryDx=0;entryDy=0;entryPerimeter=0;" edge="1" parent="1" source="m_1idenRZPcWFlcXNVzY-30" target="m_1idenRZPcWFlcXNVzY-29">
          <mxGeometry relative="1" as="geometry" />
        </mxCell>
        <mxCell id="m_1idenRZPcWFlcXNVzY-30" value="" style="verticalLabelPosition=bottom;verticalAlign=top;html=1;shape=hexagon;perimeter=hexagonPerimeter2;arcSize=6;size=0.27;" vertex="1" parent="1">
          <mxGeometry x="407" y="184" width="146" height="70" as="geometry" />
        </mxCell>
        <mxCell id="m_1idenRZPcWFlcXNVzY-31" value="int index =0,&lt;br&gt;start =0,&lt;br&gt;end= data.size()-1;" style="text;html=1;strokeColor=none;fillColor=none;align=center;verticalAlign=middle;whiteSpace=wrap;rounded=0;" vertex="1" parent="1">
          <mxGeometry x="433" y="204" width="103" height="30" as="geometry" />
        </mxCell>
        <mxCell id="m_1idenRZPcWFlcXNVzY-37" style="edgeStyle=orthogonalEdgeStyle;rounded=0;orthogonalLoop=1;jettySize=auto;html=1;entryX=0.5;entryY=0;entryDx=0;entryDy=0;" edge="1" parent="1" source="m_1idenRZPcWFlcXNVzY-34" target="m_1idenRZPcWFlcXNVzY-36">
          <mxGeometry relative="1" as="geometry" />
        </mxCell>
        <mxCell id="m_1idenRZPcWFlcXNVzY-34" value="while (start&lt;= end)" style="strokeWidth=2;html=1;shape=mxgraph.flowchart.loop_limit;whiteSpace=wrap;" vertex="1" parent="1">
          <mxGeometry x="415" y="420" width="130" height="60" as="geometry" />
        </mxCell>
        <mxCell id="m_1idenRZPcWFlcXNVzY-39" style="edgeStyle=orthogonalEdgeStyle;rounded=0;orthogonalLoop=1;jettySize=auto;html=1;entryX=0.5;entryY=0;entryDx=0;entryDy=0;entryPerimeter=0;" edge="1" parent="1" source="m_1idenRZPcWFlcXNVzY-36" target="m_1idenRZPcWFlcXNVzY-38">
          <mxGeometry relative="1" as="geometry" />
        </mxCell>
        <mxCell id="m_1idenRZPcWFlcXNVzY-36" value="index = (start + end) / 2;" style="rounded=1;whiteSpace=wrap;html=1;absoluteArcSize=1;arcSize=14;strokeWidth=2;" vertex="1" parent="1">
          <mxGeometry x="415" y="510" width="130" height="40" as="geometry" />
        </mxCell>
        <mxCell id="m_1idenRZPcWFlcXNVzY-41" style="edgeStyle=orthogonalEdgeStyle;rounded=0;orthogonalLoop=1;jettySize=auto;html=1;entryX=0.5;entryY=0;entryDx=0;entryDy=0;entryPerimeter=0;" edge="1" parent="1" source="m_1idenRZPcWFlcXNVzY-38" target="m_1idenRZPcWFlcXNVzY-40">
          <mxGeometry relative="1" as="geometry" />
        </mxCell>
        <mxCell id="m_1idenRZPcWFlcXNVzY-38" value="printf(&quot; | &quot;);" style="strokeWidth=2;html=1;shape=mxgraph.flowchart.document2;whiteSpace=wrap;size=0.25;" vertex="1" parent="1">
          <mxGeometry x="430" y="584.5" width="100" height="60" as="geometry" />
        </mxCell>
        <mxCell id="m_1idenRZPcWFlcXNVzY-40" value="int j = 0, j++" style="strokeWidth=2;html=1;shape=mxgraph.flowchart.loop_limit;whiteSpace=wrap;" vertex="1" parent="1">
          <mxGeometry x="400" y="700" width="160" height="60" as="geometry" />
        </mxCell>
        <mxCell id="m_1idenRZPcWFlcXNVzY-42" value="" style="strokeWidth=2;html=1;shape=mxgraph.flowchart.loop_limit;whiteSpace=wrap;rotation=-180;" vertex="1" parent="1">
          <mxGeometry x="430" y="1190" width="100" height="60" as="geometry" />
        </mxCell>
        <mxCell id="m_1idenRZPcWFlcXNVzY-43" value="&#xa;&lt;span style=&quot;color: rgb(0, 0, 0); font-family: Helvetica; font-size: 12px; font-style: normal; font-variant-ligatures: normal; font-variant-caps: normal; font-weight: 400; letter-spacing: normal; orphans: 2; text-align: center; text-indent: 0px; text-transform: none; widows: 2; word-spacing: 0px; -webkit-text-stroke-width: 0px; background-color: rgb(248, 249, 250); text-decoration-thickness: initial; text-decoration-style: initial; text-decoration-color: initial; float: none; display: inline !important;&quot;&gt;j &amp;lt; data.size()&lt;/span&gt;&#xa;&#xa;" style="text;html=1;strokeColor=none;fillColor=none;align=center;verticalAlign=middle;whiteSpace=wrap;rounded=0;" vertex="1" parent="1">
          <mxGeometry x="440" y="1210" width="80" height="30" as="geometry" />
        </mxCell>
        <mxCell id="m_1idenRZPcWFlcXNVzY-45" value="true" style="edgeStyle=orthogonalEdgeStyle;rounded=0;orthogonalLoop=1;jettySize=auto;html=1;entryX=0;entryY=0.5;entryDx=0;entryDy=0;entryPerimeter=0;" edge="1" parent="1" source="m_1idenRZPcWFlcXNVzY-44" target="m_1idenRZPcWFlcXNVzY-46">
          <mxGeometry relative="1" as="geometry">
            <mxPoint x="480" y="930" as="targetPoint" />
          </mxGeometry>
        </mxCell>
        <mxCell id="m_1idenRZPcWFlcXNVzY-48" value="false" style="edgeStyle=orthogonalEdgeStyle;rounded=0;orthogonalLoop=1;jettySize=auto;html=1;entryX=0.5;entryY=0;entryDx=0;entryDy=0;entryPerimeter=0;" edge="1" parent="1" source="m_1idenRZPcWFlcXNVzY-44" target="m_1idenRZPcWFlcXNVzY-47">
          <mxGeometry relative="1" as="geometry" />
        </mxCell>
        <mxCell id="m_1idenRZPcWFlcXNVzY-44" value="j == start&amp;&amp; index!=start" style="strokeWidth=2;html=1;shape=mxgraph.flowchart.decision;whiteSpace=wrap;" vertex="1" parent="1">
          <mxGeometry x="430" y="790" width="100" height="100" as="geometry" />
        </mxCell>
        <mxCell id="m_1idenRZPcWFlcXNVzY-46" value="printf(&quot;&lt;-&quot;);" style="strokeWidth=2;html=1;shape=mxgraph.flowchart.document2;whiteSpace=wrap;size=0.25;" vertex="1" parent="1">
          <mxGeometry x="610" y="810" width="100" height="60" as="geometry" />
        </mxCell>
        <mxCell id="m_1idenRZPcWFlcXNVzY-49" value="false" style="edgeStyle=orthogonalEdgeStyle;rounded=0;orthogonalLoop=1;jettySize=auto;html=1;entryX=0.5;entryY=0;entryDx=0;entryDy=0;entryPerimeter=0;" edge="1" parent="1" source="m_1idenRZPcWFlcXNVzY-47" target="m_1idenRZPcWFlcXNVzY-50">
          <mxGeometry relative="1" as="geometry">
            <mxPoint x="480" y="1060" as="targetPoint" />
          </mxGeometry>
        </mxCell>
        <mxCell id="m_1idenRZPcWFlcXNVzY-52" value="true" style="edgeStyle=orthogonalEdgeStyle;rounded=0;orthogonalLoop=1;jettySize=auto;html=1;entryX=0;entryY=0.5;entryDx=0;entryDy=0;entryPerimeter=0;" edge="1" parent="1" source="m_1idenRZPcWFlcXNVzY-47" target="m_1idenRZPcWFlcXNVzY-51">
          <mxGeometry relative="1" as="geometry" />
        </mxCell>
        <mxCell id="m_1idenRZPcWFlcXNVzY-47" value="j == index" style="strokeWidth=2;html=1;shape=mxgraph.flowchart.decision;whiteSpace=wrap;" vertex="1" parent="1">
          <mxGeometry x="430" y="930" width="100" height="80" as="geometry" />
        </mxCell>
        <mxCell id="m_1idenRZPcWFlcXNVzY-56" value="true" style="edgeStyle=orthogonalEdgeStyle;rounded=0;orthogonalLoop=1;jettySize=auto;html=1;entryX=0;entryY=0.5;entryDx=0;entryDy=0;entryPerimeter=0;" edge="1" parent="1" source="m_1idenRZPcWFlcXNVzY-50" target="m_1idenRZPcWFlcXNVzY-55">
          <mxGeometry relative="1" as="geometry" />
        </mxCell>
        <mxCell id="m_1idenRZPcWFlcXNVzY-50" value="j == end &amp;&amp; index != end" style="strokeWidth=2;html=1;shape=mxgraph.flowchart.decision;whiteSpace=wrap;" vertex="1" parent="1">
          <mxGeometry x="410" y="1050" width="140" height="80" as="geometry" />
        </mxCell>
        <mxCell id="m_1idenRZPcWFlcXNVzY-51" value="printf(&quot; + &quot;);" style="strokeWidth=2;html=1;shape=mxgraph.flowchart.document2;whiteSpace=wrap;size=0.25;" vertex="1" parent="1">
          <mxGeometry x="610" y="940" width="100" height="60" as="geometry" />
        </mxCell>
        <mxCell id="m_1idenRZPcWFlcXNVzY-59" style="edgeStyle=orthogonalEdgeStyle;rounded=0;orthogonalLoop=1;jettySize=auto;html=1;entryX=0;entryY=0.5;entryDx=0;entryDy=0;" edge="1" parent="1" source="m_1idenRZPcWFlcXNVzY-55" target="m_1idenRZPcWFlcXNVzY-57">
          <mxGeometry relative="1" as="geometry" />
        </mxCell>
        <mxCell id="m_1idenRZPcWFlcXNVzY-55" value="printf(&quot;-&gt;&quot;);" style="strokeWidth=2;html=1;shape=mxgraph.flowchart.document2;whiteSpace=wrap;size=0.25;" vertex="1" parent="1">
          <mxGeometry x="590" y="1060" width="100" height="60" as="geometry" />
        </mxCell>
        <mxCell id="m_1idenRZPcWFlcXNVzY-57" value="break;" style="rounded=1;whiteSpace=wrap;html=1;absoluteArcSize=1;arcSize=14;strokeWidth=2;" vertex="1" parent="1">
          <mxGeometry x="720" y="1065" width="100" height="50" as="geometry" />
        </mxCell>
      </root>
    </mxGraphModel>
  </diagram>
</mxfile>
